<?xml version="1.0" encoding="UTF-8"?>
<svg id="Camada_2" data-name="Camada 2" xmlns="http://www.w3.org/2000/svg" viewBox="0 0 263.31 304.73">
  <defs>
    <style>
      .cls-1 {
        fill: #80f;
      }
    </style>
  </defs>
  <g id="Camada_1-2" data-name="Camada 1">
    <path class="cls-1" d="M238.56,304.73h-14.1c-.56-2.68-6.34-10.7-6.34-10.7,1.18-39.28-34.12-36.87-34.12-36.87-12.92-3.53-28.93-19.14-28.93-19.14,0,0,6.56-16.96,6.56-33.72s-6.07-32.02-29.88-32.48h-.2c-48.58.93-23.32,66.2-23.32,66.2,0,0-16.01,15.61-28.93,19.14,0,0-35.31-2.41-34.12,36.87,0,0-5.78,8.02-6.34,10.68h-13.18c-7.76,0-14.64-4.9-17.29-12.19C1.94,274.83.61,257.3.06,243.33c-.68-17.78,4.26-45.29,15.26-65.89,13.45-25.17,1.78-42.95,1.78-42.95,0,0,28.16,5.58,39.97,34.88,0,0,30.17-16.18,24.71-94.93,0,0,1.63-54.48,59.42-74.44,0,0-17.32,65.06,17.57,92.35,30.35,23.73,52.93,69.31,56.06,109.5,0,0,20.58-3.29,23.84-51.82,0,0,41.1,77.82,17.09,142.76-2.66,7.2-9.55,11.95-17.22,11.94Z"/>
  </g>
</svg>