<svg width="355" height="141" viewBox="0 0 355 141" fill="none" xmlns="http://www.w3.org/2000/svg">
<path d="M109.774 140.307H103.288C103.027 139.076 100.37 135.381 100.37 135.381C100.917 117.293 84.6703 118.407 84.6703 118.407C78.7249 116.778 71.3599 109.591 71.3599 109.591C71.3599 109.591 74.3814 101.785 74.3814 94.0639C74.3814 86.3426 71.5878 79.3184 60.6282 79.1099H60.5371C38.1882 79.5334 49.8054 109.591 49.8054 109.591C49.8054 109.591 42.4404 116.778 36.4951 118.407C36.4951 118.407 20.2478 117.293 20.7948 135.381C20.7948 135.381 18.1314 139.076 17.8775 140.301H11.8084C8.23983 140.301 5.06852 138.046 3.85079 134.691C0.894382 126.539 0.275753 118.473 0.0282996 112.035C-0.284273 103.851 1.98839 91.1839 7.04815 81.6967C13.241 70.1048 7.86865 61.9209 7.86865 61.9209C7.86865 61.9209 20.8274 64.4881 26.2583 77.9826C26.2583 77.9826 40.1417 70.5349 37.6281 34.2738C37.6281 34.2738 38.377 9.19398 64.9717 0C64.9717 0 57.0011 29.9537 73.0595 42.5229C87.0276 53.4501 97.4141 74.4314 98.8597 92.9367C98.8597 92.9367 108.328 91.425 109.832 69.0753C109.832 69.0753 128.743 104.906 117.699 134.808C116.474 138.125 113.303 140.314 109.774 140.307Z" fill="white"/>
<path d="M213.215 90.695C216.94 90.695 220.704 90.7276 224.501 90.7992C228.297 90.8709 231.794 91.0534 234.998 91.3401L233.852 97.9342H216.009C214.336 97.9342 213.118 98.2469 212.356 98.866C211.594 99.485 211.093 100.612 210.852 102.235L205.551 140.307H196.525L202.113 100.084C202.588 97.1197 203.799 94.8131 205.733 93.1645C207.667 91.516 210.161 90.6885 213.222 90.6885L213.215 90.695ZM201.754 112.054H229.196L228.265 118.433L200.752 118.505L201.754 112.054Z" fill="white"/>
<path d="M247.54 90.8389L240.592 140.308H231.566L238.515 90.8389H247.54Z" fill="white"/>
<path d="M290.453 90.8389L289.451 98.1497H249.969L250.972 90.8389H290.453ZM275.196 90.8389L268.248 140.308H259.294L266.242 90.8389H275.196Z" fill="white"/>
<path d="M180.149 21.7754C181.126 21.7754 181.986 22.0816 182.721 22.6941C183.457 23.3066 183.887 24.1016 184.004 25.0855L194.749 85.2014H183.268L175.825 36.2994C175.702 35.322 175.597 34.325 175.506 33.3151C175.415 32.3051 175.337 31.3408 175.278 30.422H172.524C172.218 31.2821 171.879 32.227 171.514 33.2695C171.15 34.312 170.746 35.322 170.323 36.3059L149.1 85.2079H137.066L164.716 24.6359C165.081 23.6585 165.634 22.9352 166.37 22.4726C167.106 22.01 167.959 21.7819 168.942 21.7819H180.149V21.7754ZM185.847 58.0821L184.747 67.2761H152.226L153.418 58.0821H185.847Z" fill="white"/>
<path d="M249.841 21.7754L244.332 60.5647C243.472 66.8786 242 71.935 239.923 75.7338C237.839 79.5326 234.974 82.2627 231.334 83.9113C227.687 85.5663 222.992 86.3938 217.236 86.3938C211.479 86.3938 206.934 85.5207 203.411 83.7744C199.888 82.0282 197.472 79.2263 196.157 75.3624C194.841 71.505 194.607 66.416 195.466 60.1021L200.793 21.7754H212.365L206.947 60.5647C206.335 64.6697 206.244 67.9342 206.673 70.3516C207.103 72.7756 208.158 74.4893 209.845 75.4992C211.531 76.5092 213.993 77.0174 217.242 77.0174C220.492 77.0174 223.246 76.4831 225.323 75.408C227.407 74.3394 229.029 72.5605 230.194 70.078C231.36 67.5954 232.278 64.2723 232.949 60.1021L238.276 21.7754H249.847H249.841Z" fill="white"/>
<path d="M266.621 21.7758L257.712 85.1953H246.414L255.322 21.7758H266.621ZM278.01 20.9482C282.848 20.9482 286.873 21.5151 290.09 22.6489C293.306 23.7827 295.631 25.7309 297.07 28.4872C298.509 31.2434 298.894 35.0748 298.216 39.9748C297.852 42.9134 297.129 45.4872 296.061 47.6961C294.986 49.905 293.489 51.6644 291.561 52.9806C289.634 54.2968 287.133 55.1439 284.072 55.5088L283.981 55.9714C285.082 56.2776 286.124 56.7989 287.107 57.5352C288.084 58.2715 288.93 59.2945 289.634 60.6172C290.337 61.9334 290.845 63.5754 291.151 65.5367L294.733 85.2083H282.881L279.664 65.4455C279.358 63.178 278.733 61.6467 277.782 60.8518C276.831 60.0568 275.405 59.6594 273.51 59.6594C269.408 59.6008 265.963 59.5682 263.176 59.5682C260.389 59.5682 258.077 59.5356 256.241 59.4769C254.404 59.4183 252.75 59.3857 251.278 59.3857L252.47 50.6544H274.148C276.903 50.5957 279.11 50.2569 280.764 49.6444C282.418 49.0319 283.721 47.9438 284.665 46.3799C285.616 44.8161 286.274 42.5941 286.638 39.7141C287.068 37.199 287.068 35.2442 286.638 33.8302C286.208 32.4228 285.29 31.4259 283.884 30.8459C282.477 30.266 280.452 29.9728 277.821 29.9728C272.247 29.9728 267.532 30.0054 263.677 30.064C259.816 30.1227 257.217 30.1878 255.869 30.2465L255.316 21.7888C257.764 21.5477 260.096 21.3587 262.297 21.2349C264.504 21.1111 266.842 21.0395 269.323 21.0069C271.804 20.9743 274.695 20.9613 278.003 20.9613L278.01 20.9482Z" fill="white"/>
<path d="M340.395 21.7754C341.372 21.7754 342.231 22.0816 342.967 22.6941C343.703 23.3066 344.133 24.1016 344.25 25.0855L355.001 85.2014H343.52L336.077 36.2994C335.954 35.322 335.849 34.325 335.758 33.3151C335.667 32.3051 335.589 31.3408 335.53 30.422H332.776C332.47 31.2821 332.131 32.227 331.766 33.2695C331.402 34.312 330.998 35.322 330.575 36.3059L309.352 85.2079H297.318L324.968 24.6359C325.333 23.6585 325.886 22.9352 326.622 22.4726C327.358 22.01 328.211 21.7819 329.194 21.7819H340.401L340.395 21.7754ZM346.086 58.0821L344.986 67.2761H312.465L313.657 58.0821H346.08H346.086Z" fill="white"/>
</svg>
